<svg width="24" height="25" viewBox="0 0 24 25" fill="none" xmlns="http://www.w3.org/2000/svg">
<path d="M15.5799 12.3168C15.5799 14.2968 13.9799 15.8968 11.9999 15.8968C10.0199 15.8968 8.41992 14.2968 8.41992 12.3168C8.41992 10.3368 10.0199 8.73679 11.9999 8.73679C13.9799 8.73679 15.5799 10.3368 15.5799 12.3168Z" stroke="#F9F9F9" stroke-width="1.5" stroke-linecap="round" stroke-linejoin="round"/>
<path d="M12.0001 20.5868C15.5301 20.5868 18.8201 18.5068 21.1101 14.9068C22.0101 13.4968 22.0101 11.1268 21.1101 9.71677C18.8201 6.11677 15.5301 4.03677 12.0001 4.03677C8.47009 4.03677 5.18009 6.11677 2.89009 9.71677C1.99009 11.1268 1.99009 13.4968 2.89009 14.9068C5.18009 18.5068 8.47009 20.5868 12.0001 20.5868Z" stroke="#F9F9F9" stroke-width="1.5" stroke-linecap="round" stroke-linejoin="round"/>
</svg>
